<svg xmlns="http://www.w3.org/2000/svg" xmlns:xlink="http://www.w3.org/1999/xlink" width="17.221" height="19.28" viewBox="0 0 17.221 19.28">
  <defs>
    <linearGradient id="linear-gradient" x1="0.5" x2="0.5" y2="1" gradientUnits="objectBoundingBox">
      <stop offset="0" stop-color="#2866bf"/>
      <stop offset="1" stop-color="#1f417c"/>
    </linearGradient>
  </defs>
  <g id="Account_icon" data-name="Account icon" transform="translate(-6.99 -4)">
    <path id="Path_7" data-name="Path 7" d="M15.6,4a4.362,4.362,0,1,1-4.362,4.362A4.361,4.361,0,0,1,15.6,4Zm0,19.28h.12a10.634,10.634,0,0,0,8.49-4.39l-.5-2.114a2.873,2.873,0,0,0-2.1-2.324l-3.147-.905a5.952,5.952,0,0,1-5.715,0L9.6,14.452a2.873,2.873,0,0,0-2.1,2.324l-.5,2.114a10.624,10.624,0,0,0,8.49,4.39Z" fill-rule="evenodd" fill="url(#linear-gradient)"/>
  </g>
</svg>
