<svg xmlns="http://www.w3.org/2000/svg" xmlns:xlink="http://www.w3.org/1999/xlink" width="29.32" height="19.28" viewBox="0 0 29.32 19.28">
  <defs>
    <linearGradient id="linear-gradient" x1="0.5" x2="0.5" y2="1" gradientUnits="objectBoundingBox">
      <stop offset="0" stop-color="#2866bf"/>
      <stop offset="1" stop-color="#1f417c"/>
    </linearGradient>
  </defs>
  <g id="Activity_icon" data-name="Activity icon" transform="translate(0 -162.661)">
    <path id="Path_8" data-name="Path 8" d="M754.1,584.282q0-.1-.007-.192t-.007-.193l0-.048v-.1l-.006-.081-.025-.323-.006-.082-.01-.106-.02-.211-.021-.21-.011-.1-.013-.1c-.035-.254-.067-.5-.111-.745-.021-.12-.041-.238-.063-.354l-.07-.337c-.043-.219-.1-.424-.143-.613l-.034-.139-.037-.132-.069-.242c-.022-.076-.041-.147-.061-.213l-.057-.179-.064-.2a.152.152,0,0,0-.187-.1l-4.957,1.413a.152.152,0,0,0-.108.174l.018.1.023.123c.008.045.014.094.023.146l.025.166c0,.029.009.059.014.09l.011.095c.014.129.034.268.044.416l.019.227c0,.078.007.157.011.238.011.161.009.328.012.5v.063l0,.056,0,.112c0,.037,0,.074,0,.112v.056l0,.08-.014.324,0,.081v.013c0,.012,0-.1,0-.049v.02l0,.032-.011.127-.011.125-.015.124c-.011.082-.017.163-.03.242l-.034.233-.038.221c-.011.072-.026.141-.04.208s-.025.132-.04.194l-.041.177-.019.081-.018.066-.01.038h6.063a.152.152,0,0,0,.152-.145h0q.008-.169.016-.347c0-.118,0-.239.007-.362s0-.248,0-.374Q754.1,584.378,754.1,584.282Z" transform="translate(-724.78 -403.762)" fill="url(#linear-gradient)"/>
    <path id="Path_9" data-name="Path 9" d="M658.5,337.531a.152.152,0,0,0,.081-.206l-.058-.123-.069-.145-.1-.213-.12-.242c-.021-.044-.042-.081-.065-.122l-.068-.125c-.046-.085-.093-.173-.144-.264l-.162-.278-.085-.145-.091-.146-.189-.3c-.135-.2-.27-.407-.42-.61l-.111-.154-.056-.077-.058-.076-.234-.3c-.079-.1-.162-.2-.242-.3-.041-.049-.08-.1-.122-.146l-.125-.142-.124-.141c-.041-.047-.082-.093-.125-.137l-.249-.265c-.082-.087-.167-.168-.247-.25s-.16-.161-.241-.235l-.232-.217c-.075-.07-.151-.134-.222-.2l-.205-.18-.19-.157-.167-.137c-.052-.042-.1-.079-.145-.113l-.16-.123a.152.152,0,0,0-.21.024l-2.661,3.22a.152.152,0,0,0,.01.2l.077.076c.028.028.059.057.092.092l.105.111.12.126.128.144c.044.051.092.1.138.157l.143.172c.05.058.1.121.147.184s.1.127.15.195l.15.205c.026.034.05.07.074.106l.074.108.074.109c.025.036.047.074.071.112.047.075.1.149.142.225l.135.229.034.057.031.058.063.115c.086.151.159.306.235.453l.1.221.05.107.045.106.087.2.075.191.035.09c.011.029.024.06.031.083l.049.142.044.124.048.145.043.129a.152.152,0,0,0,.2.093Z" transform="translate(-630.758 -163.374)" fill="url(#linear-gradient)"/>
    <path id="Path_10" data-name="Path 10" d="M452.04,238.354l.133.018.156.027.177.03c.054.009.11.022.169.034l1.679-3.435-.247-.039c-.055-.008-.11-.018-.164-.024l-.161-.02-.308-.037-.289-.025c-.093-.007-.181-.016-.265-.02l-.24-.012-.21-.01-.179,0-.192,0a.152.152,0,0,0-.154.145l-.153,3.2a.152.152,0,0,0,.131.158Z" transform="translate(-437.848 -69.95)" fill="url(#linear-gradient)"/>
    <path id="Path_11" data-name="Path 11" d="M596.231,270.405l.128.093.113.081.06.044.06.045.109.081a.152.152,0,0,0,.218-.039l2.192-3.339a.152.152,0,0,0-.051-.215l-.118-.068-.065-.037-.078-.044-.2-.111-.23-.125-.243-.122c-.085-.041-.172-.087-.264-.129l-.286-.131c-.1-.046-.2-.088-.305-.132s-.211-.09-.321-.131l-.084-.032-.946,4.1c.052.033.1.068.15.1Z" transform="translate(-577.527 -100.241)" fill="url(#linear-gradient)"/>
    <path id="Path_12" data-name="Path 12" d="M190.048,241.209c.042-.006.084-.013.125-.017l.123-.012.235-.024.22-.015.1-.007c.034,0,.067-.005.1-.005l.169,0,.148,0h.291a.152.152,0,0,0,.151-.162l-.2-3.011a.152.152,0,0,0-.171-.141l-.135.017-.157.02-.219.032-.248.038c-.045.006-.086.015-.129.023l-.132.025-.28.054-.3.068-.155.036c-.052.012-.1.027-.158.041l-.324.086-.332.1c-.056.017-.112.034-.169.052l-.169.058-.17.058c-.057.019-.114.039-.17.061l-.338.129c-.112.044-.223.093-.334.139l-.165.07-.162.075-.161.074c-.053.025-.106.049-.158.076l-.306.155c-.1.05-.2.106-.292.157s-.188.1-.276.156l-.257.153c-.083.049-.161.1-.237.149l-.216.138-.191.131-.167.115c-.052.036-.1.071-.139.1l-.145.107a.152.152,0,0,0-.035.208l1.25,1.838a.152.152,0,0,0,.2.047l.112-.063c.037-.021.078-.045.123-.069l.147-.077.167-.087.188-.09c.066-.031.133-.066.205-.1l.222-.1c.075-.035.155-.065.236-.1s.163-.067.248-.1l.258-.093c.043-.016.088-.03.133-.045l.134-.043.135-.044.137-.039c.092-.025.183-.054.276-.077l.278-.069c.046-.012.092-.022.139-.031l.138-.029.137-.029c.045-.009.091-.016.136-.024l.267-.046Z" transform="translate(-178.8 -72.821)" fill="url(#linear-gradient)"/>
    <path id="Path_13" data-name="Path 13" d="M25.37,360.256l-.1.14-.1.141c-.033.047-.064.1-.1.144-.063.1-.128.193-.19.291l-.182.3-.045.074-.043.075-.085.149c-.115.2-.216.4-.318.587l-.14.286-.067.139-.062.137-.118.262-.1.248c-.032.08-.065.155-.093.229l-.078.208-.068.183-.054.157-.054.159a.152.152,0,0,0,.09.19l1.164.446a.152.152,0,0,0,.192-.076l.061-.127.064-.133.08-.154.091-.175c.032-.062.069-.125.106-.191l.116-.207.131-.217.068-.113.074-.114.152-.234c.109-.155.216-.318.337-.475l.089-.12.045-.06.047-.059.187-.236c.064-.078.13-.153.194-.23.033-.038.064-.077.1-.113l.1-.11.1-.109c.032-.036.065-.072.1-.106l.2-.2c.065-.067.133-.13.2-.193s.127-.124.191-.181l.184-.167c.059-.054.12-.1.176-.152l.162-.138.143-.114.125-.1c.018-.015.042-.032.062-.048l.06-.045.109-.082a.152.152,0,0,0,.024-.22l-1.325-1.552a.152.152,0,0,0-.221-.011l-.1.094-.054.052-.061.06-.147.148-.166.169-.172.186c-.059.065-.123.131-.184.2l-.191.222c-.067.075-.131.156-.2.238s-.135.165-.2.252l-.2.266C25.435,360.164,25.4,360.21,25.37,360.256Z" transform="translate(-22.648 -189.492)" fill="url(#linear-gradient)"/>
    <path id="Path_14" data-name="Path 14" d="M.313,597.75l-.027.133-.031.154c-.011.057-.022.125-.034.194l-.038.222c-.006.039-.014.079-.02.12l-.017.123c-.022.168-.05.349-.067.543l-.029.3c-.008.1-.014.205-.021.31-.017.21-.02.428-.027.649l0,.083v.25q0,.084,0,.168v.084l0,.084.014.335,0,.083v.047l0,.04.012.16.012.159.016.164.016.162.008.08.01.078.039.3.045.29c.014.094.031.186.047.274l0,.021a.152.152,0,0,0,.15.124H.8a.152.152,0,0,0,.152-.161q0-.035,0-.071c-.005-.085-.011-.173-.013-.263l-.009-.278c0-.095,0-.192,0-.29v-.074l0-.074,0-.148,0-.15.007-.159.007-.16,0-.04v-.023c0-.006,0,.006,0,0v-.015l.006-.078.025-.312.006-.078.009-.078.018-.155.018-.154.009-.077.011-.076c.031-.2.058-.4.1-.593.018-.1.035-.19.053-.281l.06-.268c.036-.174.082-.336.12-.486l.029-.11c.01-.035.02-.069.03-.1l.056-.187c.018-.059.033-.112.05-.165l.049-.149.043-.129a.152.152,0,0,0-.105-.195L.5,597.633A.152.152,0,0,0,.313,597.75Z" transform="translate(0 -421.542)" fill="url(#linear-gradient)"/>
    <path id="Path_15" data-name="Path 15" d="M345.621,181.537a2.365,2.365,0,0,0,3.166-1.087,2.482,2.482,0,0,0,.18-.508l2.394-10.392.912-3.958.565-2.452a.388.388,0,0,0-.389-.48.373.373,0,0,0-.342.221l-1.149,2.351-1.7,3.469-4.728,9.67A2.367,2.367,0,0,0,345.621,181.537Zm1.126-3.347a1.16,1.16,0,1,1-1.16,1.16A1.16,1.16,0,0,1,346.747,178.191Z" transform="translate(-333.668 0)" fill="url(#linear-gradient)"/>
  </g>
</svg>
