<svg xmlns="http://www.w3.org/2000/svg" xmlns:xlink="http://www.w3.org/1999/xlink" width="17.827" height="17.827" viewBox="0 0 17.827 17.827">
  <defs>
    <linearGradient id="linear-gradient" x1="0.5" x2="0.5" y2="1" gradientUnits="objectBoundingBox">
      <stop offset="0" stop-color="#2866bf"/>
      <stop offset="1" stop-color="#1f417c"/>
    </linearGradient>
  </defs>
  <g id="Copy_link_icon" data-name="Copy link icon" transform="translate(-142 -450.173)">
    <path id="Path_83" data-name="Path 83" d="M8.913,0A8.913,8.913,0,1,1,0,8.913,8.913,8.913,0,0,1,8.913,0Z" transform="translate(142 450.173)" fill="url(#linear-gradient)"/>
    <g id="link" transform="translate(146 453.799)">
      <g id="Group_103" data-name="Group 103" transform="translate(3.365 0)">
        <g id="Group_102" data-name="Group 102" transform="translate(0 0)">
          <path id="Path_81" data-name="Path 81" d="M178.114.687a2.345,2.345,0,0,0-3.317,0l-1.96,1.96a2.367,2.367,0,0,0,0,3.317,2.232,2.232,0,0,0,.471.358l.358-.358a.806.806,0,0,0,.148-.707,1.131,1.131,0,0,1-.148-.122,1.185,1.185,0,0,1,0-1.658l1.96-1.96a1.173,1.173,0,0,1,1.658,1.658l-1.3,1.3a3.375,3.375,0,0,1,.147,1.508c.006-.006.012-.009.018-.015L178.114,4A2.345,2.345,0,0,0,178.114.687Z" transform="translate(-172.159 0)" fill="#fff"/>
        </g>
      </g>
      <g id="Group_105" data-name="Group 105" transform="translate(0 3.533)">
        <g id="Group_104" data-name="Group 104" transform="translate(0)">
          <path id="Path_82" data-name="Path 82" d="M6.116,181.134a2.231,2.231,0,0,0-.471-.358l-.358.358a.805.805,0,0,0-.148.707,1.13,1.13,0,0,1,.148.122,1.185,1.185,0,0,1,0,1.658l-2.112,2.112a1.173,1.173,0,1,1-1.658-1.658l1.448-1.447a3.375,3.375,0,0,1-.147-1.508c-.006.006-.012.009-.018.015L.687,183.246A2.345,2.345,0,0,0,4,186.562l2.112-2.112A2.366,2.366,0,0,0,6.116,181.134Z" transform="translate(0 -180.776)" fill="#fff"/>
        </g>
      </g>
    </g>
  </g>
</svg>
