<?xml version="1.0" standalone="no"?>
<!DOCTYPE svg PUBLIC "-//W3C//DTD SVG 20010904//EN"
 "http://www.w3.org/TR/2001/REC-SVG-20010904/DTD/svg10.dtd">
<svg version="1.0" xmlns="http://www.w3.org/2000/svg"
 width="429.000000pt" height="302.000000pt" viewBox="0 0 429.000000 302.000000"
 preserveAspectRatio="xMidYMid meet">

<g transform="translate(0.000000,302.000000) scale(0.100000,-0.100000)"
fill="#000000" stroke="none">
<path d="M2495 2634 c-390 -85 -1088 -235 -1550 -335 -462 -99 -850 -182 -862
-186 -19 -4 -23 -1 -24 18 0 13 -7 47 -15 74 l-13 50 4 -65 c6 -81 6 -79 64
-345 27 -121 105 -479 175 -796 69 -317 130 -589 136 -605 22 -58 100 -113
160 -114 14 0 119 20 233 45 115 25 215 45 223 45 11 0 14 -25 14 -135 0 -143
11 -185 57 -227 55 -50 -17 -48 1563 -48 1227 0 1476 2 1503 14 42 18 92 71
82 87 -5 7 -4 10 3 5 29 -17 32 82 32 950 0 632 -3 891 -11 915 -18 52 -53 93
-96 112 -34 14 -126 17 -808 23 -675 6 -763 9 -710 20 33 8 194 43 359 78 164
36 301 67 304 70 6 7 -97 488 -106 497 -4 4 -326 -63 -717 -147z m1663 -553
c42 -22 63 -43 86 -88 14 -29 16 -120 14 -950 l-3 -918 -5 910 c-5 993 -2 936
-62 992 -60 56 29 53 -1563 53 -1264 0 -1470 -2 -1501 -15 -19 -8 -32 -10 -28
-4 23 38 16 38 1547 39 1431 0 1479 -1 1515 -19z m-3123 -483 c3 -101 3 -399
-2 -662 l-8 -480 -195 -43 c-221 -48 -265 -51 -320 -23 -82 42 -80 35 -211
645 -66 306 -118 559 -115 562 6 6 801 181 827 182 15 1 18 -21 24 -181z m395
-333 l0 -65 -75 0 -75 0 0 31 c0 48 56 99 109 99 l41 0 0 -65z m180 -185 l0
-251 -82 3 -83 3 -3 248 -2 247 85 0 85 0 0 -250z m109 235 c28 -14 61 -68 61
-99 0 -13 -13 -16 -75 -16 l-75 0 0 65 0 65 30 0 c17 0 44 -7 59 -15z m-291
-177 l-3 -43 -72 -3 -73 -3 0 46 0 45 76 0 75 0 -3 -42z m350 0 l-3 -43 -72
-3 -73 -3 0 46 0 45 76 0 75 0 -3 -42z m-348 -103 l0 -45 -75 0 -75 0 0 45 0
45 75 0 75 0 0 -45z m350 0 l0 -45 -75 0 -75 0 0 45 0 45 75 0 75 0 0 -45z
m-350 -135 c0 -69 0 -70 -26 -70 -63 0 -124 56 -124 114 0 26 1 26 75 26 l75
0 0 -70z m346 38 c-9 -47 -33 -78 -71 -94 -68 -28 -75 -23 -75 56 l0 70 76 0
77 0 -7 -32z m2145 -443 c63 -44 91 -105 87 -182 -3 -50 -10 -71 -34 -105 -42
-60 -104 -93 -174 -92 -66 1 -104 19 -153 73 -75 83 -74 190 1 273 50 56 83
69 164 65 56 -2 74 -8 109 -32z m-1972 -171 c17 -14 36 -43 42 -64 10 -32 9
-44 -7 -77 -33 -67 -58 -73 -302 -73 -231 0 -250 4 -291 56 -25 32 -27 83 -6
124 29 55 47 59 302 60 l231 0 31 -26z m741 11 c61 -32 79 -121 35 -173 -42
-50 -62 -53 -303 -50 -206 3 -222 4 -249 24 -34 26 -58 83 -49 120 4 15 22 42
41 61 l33 33 231 0 c188 0 238 -3 261 -15z"/>
</g>
</svg>
