<?xml version="1.0" encoding="iso-8859-1"?>
<!-- Generator: Adobe Illustrator 19.0.0, SVG Export Plug-In . SVG Version: 6.00 Build 0)  -->
<svg version="1.1" id="Layer_1" xmlns="http://www.w3.org/2000/svg" xmlns:xlink="http://www.w3.org/1999/xlink" x="0px" y="0px"
	 viewBox="0 0 512 512" style="enable-background:new 0 0 512 512;" xml:space="preserve">
<path style="fill:#79D5DE;" d="M460.238,431.685H51.762C23.175,431.685,0,408.51,0,379.923V132.077
	c0-28.587,23.175-51.762,51.762-51.762h408.476c28.587,0,51.762,23.175,51.762,51.762v247.845
	C512,408.51,488.825,431.685,460.238,431.685z"/>
<path style="fill:#3D6C6F;" d="M460.238,431.685H256V80.315h204.238c28.587,0,51.762,23.175,51.762,51.762v247.845
	C512,408.51,488.825,431.685,460.238,431.685z"/>
<rect y="141.857" style="fill:#575759;" width="512" height="61.916"/>
<rect x="254.286" y="141.857" style="fill:#2C2C2C;" width="257.714" height="61.916"/>
<g>
	<rect x="55.512" y="255.555" style="fill:#FFFFFF;" width="126.275" height="35.718"/>
	<rect x="55.512" y="321.135" style="fill:#FFFFFF;" width="166.701" height="35.718"/>
</g>
<circle style="fill:#B90B27;" cx="431.538" cy="327.446" r="49.007"/>
<circle style="fill:#F4DA49;" cx="366.225" cy="327.446" r="49.007"/>
<g>
</g>
<g>
</g>
<g>
</g>
<g>
</g>
<g>
</g>
<g>
</g>
<g>
</g>
<g>
</g>
<g>
</g>
<g>
</g>
<g>
</g>
<g>
</g>
<g>
</g>
<g>
</g>
<g>
</g>
</svg>
