<svg id="telephone_icon" data-name="telephone icon" xmlns="http://www.w3.org/2000/svg" xmlns:xlink="http://www.w3.org/1999/xlink" width="9.108" height="9.108" viewBox="0 0 9.108 9.108">
  <defs>
    <linearGradient id="linear-gradient" x1="0.5" x2="-0.502" y2="1.579" gradientUnits="objectBoundingBox">
      <stop offset="0" stop-color="#ffd200"/>
      <stop offset="1" stop-color="#f7971e"/>
    </linearGradient>
  </defs>
  <g id="Group_30" data-name="Group 30" transform="translate(0)">
    <path id="Path_30" data-name="Path 30" d="M6.93,51.288a.638.638,0,0,0-.965,0c-.226.224-.451.447-.673.675A.133.133,0,0,1,5.107,52c-.146-.08-.3-.144-.442-.231a7,7,0,0,1-1.687-1.535,4,4,0,0,1-.6-.968.139.139,0,0,1,.034-.178c.226-.218.445-.442.667-.665a.641.641,0,0,0,0-.987c-.176-.178-.353-.353-.529-.531s-.362-.366-.546-.546a.642.642,0,0,0-.965,0c-.227.224-.445.453-.677.673a1.1,1.1,0,0,0-.345.741,3.14,3.14,0,0,0,.243,1.351A8.211,8.211,0,0,0,1.712,51.55,9.019,9.019,0,0,0,4.7,53.886a4.32,4.32,0,0,0,1.655.481,1.213,1.213,0,0,0,1.041-.4c.193-.216.411-.413.616-.62a.645.645,0,0,0,0-.982Q7.474,51.827,6.93,51.288Z" transform="translate(-0.006 -45.263)" fill="url(#linear-gradient)"/>
    <path id="Path_31" data-name="Path 31" d="M239.908,98.7l.7-.119A3.139,3.139,0,0,0,237.953,96l-.1.7a2.426,2.426,0,0,1,2.054,1.992Z" transform="translate(-233.346 -94.181)" fill="url(#linear-gradient)"/>
    <path id="Path_32" data-name="Path 32" d="M245.809,1.475A5.157,5.157,0,0,0,242.853,0l-.1.7a4.5,4.5,0,0,1,3.808,3.69l.7-.119A5.2,5.2,0,0,0,245.809,1.475Z" transform="translate(-238.153)" fill="url(#linear-gradient)"/>
  </g>
</svg>
