<svg id="whatsapp_icon" data-name="whatsapp icon" xmlns="http://www.w3.org/2000/svg" width="9.683" height="9.683" viewBox="0 0 9.683 9.683">
  <path id="Path_46" data-name="Path 46" d="M8.279,1.392A4.9,4.9,0,0,0,4.86,0,4.806,4.806,0,0,0,.684,7.2L0,9.683l2.556-.667A5.068,5.068,0,0,0,4.862,9.6,4.805,4.805,0,0,0,8.273,1.407Z" transform="translate(0)" fill="#eceff1"/>
  <path id="Path_47" data-name="Path 47" d="M6.139,9.948H6.13A4.065,4.065,0,0,1,3.946,9.3L2.433,9.7l.405-1.471-.1-.151a4,4,0,1,1,3.4,1.872Z" transform="translate(-1.271 -1.173)" fill="#4caf50"/>
  <path id="Path_48" data-name="Path 48" d="M10.629,9.562l0,.03c-.121-.061-.713-.35-.823-.39-.247-.092-.178-.015-.652.529-.071.079-.141.085-.261.03a3.275,3.275,0,0,1-.97-.6,3.66,3.66,0,0,1-.67-.835c-.118-.2.129-.233.354-.659a.222.222,0,0,0-.01-.211c-.03-.061-.271-.654-.372-.89s-.2-.206-.271-.206A.6.6,0,0,0,6.4,6.5a1.612,1.612,0,0,0,.07,2.239A4.768,4.768,0,0,0,9.214,10.8a1.669,1.669,0,0,0,.759.049,1.242,1.242,0,0,0,.813-.575,1,1,0,0,0,.073-.575c-.03-.054-.109-.085-.23-.139Z" transform="translate(-3.565 -3.789)" fill="#fafafa"/>
</svg>
