<svg version="1.1" xmlns="http://www.w3.org/2000/svg" viewBox="0 0 117 117"><path fill="White" d="M58.5,0C26.2,0,0,26.2,0,58.5C0,90.8,26.2,117,58.5,117c32.3,0,58.5-26.2,58.5-58.5C117,26.2,90.8,0,58.5,0z M58.5,112.9L58.5,112.9c-30.1,0-54.4-24.4-54.4-54.4c0-30,24.4-54.4,54.4-54.4h0c30,0,54.4,24.4,54.4,54.4C112.9,88.6,88.6,112.9,58.5,112.9z M92.7,71l-9.4,9.4l-7.6-7.6c-4.2-4.2-3.7-9.5-3.1-15.6c0.7-7,1.5-15-5.4-21.9L50.8,18.8l-2.9,2.9l16.4,16.4c5.6,5.6,5,11.9,4.3,18.6h-38l-8.9-8.9l-2.9,2.9l16.4,16.4c7,7,14.9,6.2,21.9,5.4c6.1-0.6,11.4-1.2,15.6,3.1l7.6,7.6L71,92.7l2.9,2.9l9.4-9.4l2.9-2.9l0,0l9.4-9.4L92.7,71z M56.8,68.6c-6.7,0.7-13,1.3-18.6-4.3l-3.5-3.5h33.5c-0.2,2.7-0.1,5.4,0.6,7.9C64.9,67.8,60.8,68.2,56.8,68.6z"/></svg>